<?xml version="1.0" encoding="UTF-8"?>
<svg xmlns="http://www.w3.org/2000/svg" xmlns:xlink="http://www.w3.org/1999/xlink" viewBox="0 0 6041.65 4000">
  <defs>
    <style>
      .cls-1, .cls-2, .cls-3, .cls-4, .cls-5, .cls-6, .cls-7, .cls-8, .cls-9 {
        fill: none;
      }

      .cls-10 {
        fill: rgba(31, 31, 243, .7);
      }

      .cls-11 {
        fill: #1f1ff3;
      }

      .cls-12, .cls-13, .cls-14, .cls-15, .cls-16, .cls-17, .cls-18, .cls-19, .cls-20 {
        fill: #fff;
      }

      .cls-12, .cls-17 {
        stroke: #eee;
        stroke-width: 1.5px;
      }

      .cls-13, .cls-3, .cls-21 {
        stroke: #fff;
      }

      .cls-13, .cls-21 {
        stroke-miterlimit: 10;
        stroke-width: 3px;
      }

      .cls-22 {
        fill: url(#radial-gradient);
      }

      .cls-23 {
        fill: rgba(246, 255, 24, .7);
      }

      .cls-24 {
        fill: #f6ff18;
      }

      .cls-25 {
        clip-path: url(#clippath-17);
      }

      .cls-26 {
        clip-path: url(#clippath-19);
      }

      .cls-27 {
        clip-path: url(#clippath-16);
      }

      .cls-28 {
        clip-path: url(#clippath-18);
      }

      .cls-29 {
        clip-path: url(#clippath-31);
      }

      .cls-30 {
        clip-path: url(#clippath-32);
      }

      .cls-31 {
        clip-path: url(#clippath-33);
      }

      .cls-32 {
        clip-path: url(#clippath-34);
      }

      .cls-33 {
        clip-path: url(#clippath-35);
      }

      .cls-34 {
        clip-path: url(#clippath-39);
      }

      .cls-35 {
        clip-path: url(#clippath-30);
      }

      .cls-36 {
        clip-path: url(#clippath-36);
      }

      .cls-37 {
        clip-path: url(#clippath-37);
      }

      .cls-38 {
        clip-path: url(#clippath-27);
      }

      .cls-39 {
        clip-path: url(#clippath-29);
      }

      .cls-40 {
        clip-path: url(#clippath-26);
      }

      .cls-41 {
        clip-path: url(#clippath-28);
      }

      .cls-42 {
        clip-path: url(#clippath-20);
      }

      .cls-43 {
        clip-path: url(#clippath-21);
      }

      .cls-44 {
        clip-path: url(#clippath-22);
      }

      .cls-45 {
        clip-path: url(#clippath-23);
      }

      .cls-46 {
        clip-path: url(#clippath-24);
      }

      .cls-47 {
        clip-path: url(#clippath-25);
      }

      .cls-2 {
        stroke: #21fff3;
      }

      .cls-2, .cls-3, .cls-4, .cls-5, .cls-6, .cls-7, .cls-8, .cls-9 {
        stroke-width: 2.8px;
      }

      .cls-48 {
        clip-path: url(#clippath-2);
      }

      .cls-49 {
        fill: rgba(228, 9, 32, .7);
      }

      .cls-50 {
        fill: #e40920;
      }

      .cls-4 {
        stroke: #e40920;
      }

      .cls-51 {
        fill: #f2e7d2;
      }

      .cls-15 {
        font-size: 69.85px;
      }

      .cls-15, .cls-16, .cls-18, .cls-19, .cls-20 {
        font-family: HiraKakuStdN-W8-83pv-RKSJ-H, 'Hiragino Kaku Gothic StdN';
        isolation: isolate;
      }

      .cls-52 {
        fill: rgba(226, 0, 234, .7);
      }

      .cls-53 {
        fill: rgba(33, 255, 243, .7);
      }

      .cls-54 {
        fill: #21fff3;
      }

      .cls-55 {
        fill: #e200ea;
      }

      .cls-16 {
        font-size: 150px;
      }

      .cls-17 {
        stroke-linecap: square;
      }

      .cls-5 {
        stroke: #1f1ff3;
      }

      .cls-6 {
        stroke: #e200ea;
      }

      .cls-56 {
        fill: #22ff1b;
      }

      .cls-18 {
        font-size: 59.62px;
      }

      .cls-7 {
        stroke: #f6ff18;
      }

      .cls-19 {
        font-size: 60px;
      }

      .cls-57 {
        clip-path: url(#clippath);
      }

      .cls-20 {
        font-size: 63.5px;
      }

      .cls-8 {
        stroke: #22ff1b;
      }

      .cls-58 {
        fill: rgba(255, 255, 255, .7);
      }

      .cls-59 {
        fill: rgba(34, 255, 27, .7);
      }

      .cls-9 {
        stroke: #000;
      }
    </style>
    <clipPath id="clippath">
      <polyline class="cls-1" points="6042.5 1 6042.5 4201 -1303.5 4201 -1303.5 1"/>
    </clipPath>
    <radialGradient id="radial-gradient" cx="-5689.43" cy="1869.51" fx="-5689.43" fy="1869.51" r="4187.2" gradientTransform="translate(422.73 5697.57) rotate(90) scale(1 -1)" gradientUnits="userSpaceOnUse">
      <stop offset="0" stop-color="#4d2075"/>
      <stop offset="0" stop-color="#4c2074"/>
      <stop offset=".02" stop-color="#4c2073"/>
      <stop offset=".03" stop-color="#4b2072"/>
      <stop offset=".04" stop-color="#4b2072"/>
      <stop offset=".05" stop-color="#4a2071"/>
      <stop offset=".07" stop-color="#4a1f70"/>
      <stop offset=".08" stop-color="#491f6f"/>
      <stop offset=".09" stop-color="#491f6e"/>
      <stop offset=".1" stop-color="#481f6e"/>
      <stop offset=".11" stop-color="#481f6d"/>
      <stop offset=".12" stop-color="#471f6c"/>
      <stop offset=".14" stop-color="#471f6b"/>
      <stop offset=".15" stop-color="#461f6b"/>
      <stop offset=".16" stop-color="#461f6a"/>
      <stop offset=".17" stop-color="#451f69"/>
      <stop offset=".18" stop-color="#451f68"/>
      <stop offset=".2" stop-color="#441f67"/>
      <stop offset=".21" stop-color="#441f67"/>
      <stop offset=".22" stop-color="#431e66"/>
      <stop offset=".23" stop-color="#431e65"/>
      <stop offset=".24" stop-color="#421e64"/>
      <stop offset=".25" stop-color="#421e63"/>
      <stop offset=".26" stop-color="#411e63"/>
      <stop offset=".27" stop-color="#411e62"/>
      <stop offset=".28" stop-color="#411e62"/>
      <stop offset=".29" stop-color="#401e61"/>
      <stop offset=".29" stop-color="#401e61"/>
      <stop offset=".3" stop-color="#401e60"/>
      <stop offset=".31" stop-color="#3f1e60"/>
      <stop offset=".32" stop-color="#3f1e5f"/>
      <stop offset=".32" stop-color="#3f1e5f"/>
      <stop offset=".33" stop-color="#3e1e5e"/>
      <stop offset=".34" stop-color="#3e1e5e"/>
      <stop offset=".35" stop-color="#3e1e5d"/>
      <stop offset=".36" stop-color="#3d1d5d"/>
      <stop offset=".36" stop-color="#3d1d5c"/>
      <stop offset=".37" stop-color="#3c1d5b"/>
      <stop offset=".38" stop-color="#3c1d5b"/>
      <stop offset=".39" stop-color="#3c1d5a"/>
      <stop offset=".39" stop-color="#3b1d5a"/>
      <stop offset=".4" stop-color="#3b1d59"/>
      <stop offset=".41" stop-color="#3b1d59"/>
      <stop offset=".42" stop-color="#3a1d58"/>
      <stop offset=".43" stop-color="#3a1d58"/>
      <stop offset=".43" stop-color="#3a1d57"/>
      <stop offset=".44" stop-color="#391d57"/>
      <stop offset=".45" stop-color="#391d56"/>
      <stop offset=".46" stop-color="#391d56"/>
      <stop offset=".46" stop-color="#381d55"/>
      <stop offset=".47" stop-color="#381d55"/>
      <stop offset=".48" stop-color="#381d54"/>
      <stop offset=".49" stop-color="#371d54"/>
      <stop offset=".5" stop-color="#371c53"/>
      <stop offset=".5" stop-color="#371c52"/>
      <stop offset=".52" stop-color="#361c52"/>
      <stop offset=".53" stop-color="#361c51"/>
      <stop offset=".54" stop-color="#351c50"/>
      <stop offset=".55" stop-color="#351c4f"/>
      <stop offset=".56" stop-color="#341c4e"/>
      <stop offset=".57" stop-color="#331c4e"/>
      <stop offset=".59" stop-color="#331c4d"/>
      <stop offset=".6" stop-color="#321c4c"/>
      <stop offset=".61" stop-color="#321c4b"/>
      <stop offset=".62" stop-color="#311c4a"/>
      <stop offset=".63" stop-color="#311c4a"/>
      <stop offset=".64" stop-color="#311b49"/>
      <stop offset=".65" stop-color="#301b49"/>
      <stop offset=".66" stop-color="#301b48"/>
      <stop offset=".66" stop-color="#301b48"/>
      <stop offset=".67" stop-color="#2f1b47"/>
      <stop offset=".68" stop-color="#2f1b47"/>
      <stop offset=".69" stop-color="#2f1b46"/>
      <stop offset=".7" stop-color="#2e1b45"/>
      <stop offset=".7" stop-color="#2e1b45"/>
      <stop offset=".71" stop-color="#2e1b44"/>
      <stop offset=".72" stop-color="#2d1b44"/>
      <stop offset=".73" stop-color="#2d1b43"/>
      <stop offset=".73" stop-color="#2d1b43"/>
      <stop offset=".74" stop-color="#2c1b42"/>
      <stop offset=".75" stop-color="#2c1b42"/>
      <stop offset=".76" stop-color="#2b1b41"/>
      <stop offset=".77" stop-color="#2b1b40"/>
      <stop offset=".78" stop-color="#2a1a3f"/>
      <stop offset=".79" stop-color="#2a1a3f"/>
      <stop offset=".8" stop-color="#291a3e"/>
      <stop offset=".82" stop-color="#291a3d"/>
      <stop offset=".82" stop-color="#291a3d"/>
      <stop offset=".83" stop-color="#281a3c"/>
      <stop offset=".84" stop-color="#281a3c"/>
      <stop offset=".85" stop-color="#281a3b"/>
      <stop offset=".86" stop-color="#271a3b"/>
      <stop offset=".86" stop-color="#271a3a"/>
      <stop offset=".87" stop-color="#261a39"/>
      <stop offset=".88" stop-color="#261a39"/>
      <stop offset=".89" stop-color="#261a38"/>
      <stop offset=".9" stop-color="#251a37"/>
      <stop offset=".91" stop-color="#251a37"/>
      <stop offset=".92" stop-color="#241a36"/>
      <stop offset=".93" stop-color="#241936"/>
      <stop offset=".94" stop-color="#241935"/>
      <stop offset=".95" stop-color="#231934"/>
      <stop offset=".96" stop-color="#231934"/>
      <stop offset=".96" stop-color="#221933"/>
      <stop offset=".97" stop-color="#221932"/>
      <stop offset=".98" stop-color="#221932"/>
      <stop offset=".99" stop-color="#211931"/>
      <stop offset="1" stop-color="#211931"/>
    </radialGradient>
    <clipPath id="clippath-2">
      <rect class="cls-14" x="1321.92" y="1321.29" width="3333.96" height="1986.77"/>
    </clipPath>
    <clipPath id="clippath-3">
      <rect class="cls-14" x="1312.84" y="1312.22" width="3338.5" height="1986.77"/>
    </clipPath>
    <clipPath id="clippath-4">
      <rect class="cls-14" x="1312.84" y="1312.22" width="3338.5" height="1986.77"/>
    </clipPath>
    <clipPath id="clippath-5">
      <rect class="cls-14" x="1312.84" y="1312.22" width="3338.5" height="1986.77"/>
    </clipPath>
    <clipPath id="clippath-6">
      <rect class="cls-14" x="1312.84" y="1312.22" width="3338.5" height="1986.77"/>
    </clipPath>
    <clipPath id="clippath-7">
      <rect class="cls-14" x="1312.84" y="1312.22" width="3338.5" height="1986.77"/>
    </clipPath>
    <clipPath id="clippath-8">
      <rect class="cls-14" x="1312.84" y="1312.22" width="3338.5" height="1986.77"/>
    </clipPath>
    <clipPath id="clippath-9">
      <rect class="cls-14" x="1312.84" y="1312.22" width="3338.5" height="1986.77"/>
    </clipPath>
    <clipPath id="clippath-10">
      <rect class="cls-14" x="1312.84" y="1312.22" width="3338.5" height="1986.77"/>
    </clipPath>
    <clipPath id="clippath-16">
      <rect class="cls-1" x="1330.99" y="1312.22" width="3320.35" height="2000.38"/>
    </clipPath>
    <clipPath id="clippath-17">
      <rect class="cls-1" x="1330.99" y="1312.22" width="3320.35" height="2000.38"/>
    </clipPath>
    <clipPath id="clippath-18">
      <rect class="cls-1" x="1330.99" y="1312.22" width="3320.35" height="2000.38"/>
    </clipPath>
    <clipPath id="clippath-19">
      <rect class="cls-1" x="1330.99" y="1312.22" width="3320.35" height="2000.38"/>
    </clipPath>
    <clipPath id="clippath-20">
      <rect class="cls-1" x="1330.99" y="1312.22" width="3320.35" height="2000.38"/>
    </clipPath>
    <clipPath id="clippath-21">
      <rect class="cls-1" x="1330.99" y="1312.22" width="3320.35" height="2000.38"/>
    </clipPath>
    <clipPath id="clippath-22">
      <rect class="cls-1" x="1330.99" y="1312.22" width="3320.35" height="2000.38"/>
    </clipPath>
    <clipPath id="clippath-23">
      <rect class="cls-1" x="1330.99" y="1312.22" width="3320.35" height="2000.38"/>
    </clipPath>
    <clipPath id="clippath-24">
      <rect class="cls-1" x="1330.99" y="1312.22" width="3320.35" height="2000.38"/>
    </clipPath>
    <clipPath id="clippath-25">
      <rect class="cls-1" x="1330.99" y="1312.22" width="3320.35" height="2000.38"/>
    </clipPath>
    <clipPath id="clippath-26">
      <rect class="cls-1" x="1330.99" y="1312.22" width="3320.35" height="2000.38"/>
    </clipPath>
    <clipPath id="clippath-27">
      <rect class="cls-1" x="1330.99" y="1312.22" width="3320.35" height="2000.38"/>
    </clipPath>
    <clipPath id="clippath-28">
      <rect class="cls-1" x="1330.99" y="1312.22" width="3320.35" height="2000.38"/>
    </clipPath>
    <clipPath id="clippath-29">
      <rect class="cls-1" x="1330.99" y="1312.22" width="3320.35" height="2000.38"/>
    </clipPath>
    <clipPath id="clippath-30">
      <rect class="cls-1" x="1330.99" y="1312.22" width="3320.35" height="2000.38"/>
    </clipPath>
    <clipPath id="clippath-31">
      <rect class="cls-1" x="1330.99" y="1312.22" width="3320.35" height="2000.38"/>
    </clipPath>
    <clipPath id="clippath-32">
      <rect class="cls-1" x="1330.99" y="1312.22" width="3320.35" height="2000.38"/>
    </clipPath>
    <clipPath id="clippath-33">
      <rect class="cls-1" x="1330.99" y="1312.22" width="3320.35" height="2000.38"/>
    </clipPath>
    <clipPath id="clippath-34">
      <rect class="cls-1" x="1330.99" y="1312.22" width="3320.35" height="2000.38"/>
    </clipPath>
    <clipPath id="clippath-35">
      <rect class="cls-1" x="1330.99" y="1312.22" width="3320.35" height="2000.38"/>
    </clipPath>
    <clipPath id="clippath-36">
      <rect class="cls-1" x="1330.99" y="1312.22" width="3320.35" height="2000.38"/>
    </clipPath>
    <clipPath id="clippath-37">
      <rect class="cls-1" x="1330.99" y="1312.22" width="3320.35" height="2000.38"/>
    </clipPath>
    <clipPath id="clippath-39">
      <rect class="cls-1" x="1330.99" y="1312.22" width="3320.35" height="2000.38"/>
    </clipPath>
  </defs>
  <g id="Background">
    <polyline class="cls-51" points="6042 0 6042 4000 0 4000 0 0"/>
    <g class="cls-57">
      <path class="cls-22" d="M-1303.5,1v4200h7346V1"/>
    </g>
  </g>
  <g id="Graph">
    <g id="Areas">
      <g>
        <rect class="cls-14" x="1330.99" y="1325.83" width="3320.35" height="1973.16"/>
        <g>
          <rect class="cls-14" x="1321.92" y="1321.29" width="3333.96" height="1986.77"/>
          <g class="cls-48">
            <g>
              <line class="cls-12" x1="1330.99" y1="3298.99" x2="4651.34" y2="3298.99"/>
              <line class="cls-12" x1="1330.99" y1="2904.35" x2="4651.34" y2="2904.35"/>
              <line class="cls-12" x1="1330.99" y1="2509.72" x2="4651.34" y2="2509.72"/>
              <line class="cls-12" x1="1330.99" y1="2115.09" x2="4651.34" y2="2115.09"/>
              <line class="cls-12" x1="1330.99" y1="1720.46" x2="4651.34" y2="1720.46"/>
              <line class="cls-12" x1="1330.99" y1="1325.83" x2="4651.34" y2="1325.83"/>
            </g>
          </g>
        </g>
        <g>
          <line class="cls-17" x1="1330.99" y1="3298.99" x2="4651.34" y2="3298.99"/>
          <g>
            <line class="cls-17" x1="1330.99" y1="3298.99" x2="1330.99" y2="1325.83"/>
            <g>
              <text class="cls-20" transform="translate(1100.72 3315.12)"><tspan x="0" y="0">0</tspan></text>
              <text class="cls-20" transform="translate(1039.88 1346.69)"><tspan x="0" y="0">100</tspan></text>
              <text class="cls-20" transform="translate(1069.6 1741.49)"><tspan x="0" y="0">80</tspan></text>
              <text class="cls-20" transform="translate(1072.4 2140.5)"><tspan x="0" y="0">60</tspan></text>
              <text class="cls-20" transform="translate(1075.2 2532.51)"><tspan x="0" y="0">40</tspan></text>
              <text class="cls-20" transform="translate(1076.6 2925.91)"><tspan x="0" y="0">20</tspan></text>
            </g>
            <text class="cls-15" transform="translate(1095.95 1246.8)"><tspan x="0" y="0">%</tspan></text>
          </g>
        </g>
      </g>
      <g id="data-points">
        <rect class="cls-14" x="1312.84" y="1312.22" width="3338.5" height="1986.77"/>
        <rect class="cls-14" x="1312.84" y="1312.22" width="3338.5" height="1986.77"/>
        <rect class="cls-14" x="1312.84" y="1312.22" width="3338.5" height="1986.77"/>
        <rect class="cls-14" x="1312.84" y="1312.22" width="3338.5" height="1986.77"/>
        <rect class="cls-14" x="1312.84" y="1312.22" width="3338.5" height="1986.77"/>
        <rect class="cls-14" x="1312.84" y="1312.22" width="3338.5" height="1986.77"/>
        <rect class="cls-14" x="1312.84" y="1312.22" width="3338.5" height="1986.77"/>
        <rect class="cls-14" x="1312.84" y="1312.22" width="3338.5" height="1986.77"/>
      </g>
      <g id="data-point-labels">
        <rect class="cls-14" x="1312.84" y="1312.22" width="3338.5" height="1986.77"/>
        <rect class="cls-14" x="1312.84" y="1312.22" width="3338.5" height="1986.77"/>
        <rect class="cls-14" x="1312.84" y="1312.22" width="3338.5" height="1986.77"/>
        <rect class="cls-14" x="1312.84" y="1312.22" width="3338.5" height="1986.77"/>
        <polyline class="cls-14" points="4651.34 1312.22 4651.34 3298.99 1312.84 3298.99"/>
      </g>
      <text class="cls-20" transform="translate(1281.22 728.45)"><tspan x="0" y="0">Action &amp; </tspan><tspan x="-26.8" y="76.2">Adventure</tspan></text>
      <text class="cls-20" transform="translate(1695.13 728.45)"><tspan x="0" y="0">Animation </tspan><tspan x="38.32" y="76.2">&amp; Family</tspan></text>
      <text class="cls-20" transform="translate(2183.49 770.45)"><tspan x="0" y="0">Fantasy</tspan></text>
      <text class="cls-20" transform="translate(2604.52 770.45)"><tspan x="0" y="0">Comedy</tspan></text>
      <text class="cls-20" transform="translate(3049.34 770.45)"><tspan x="0" y="0">Drama</tspan></text>
      <text class="cls-20" transform="translate(3491.24 770.45)"><tspan x="0" y="0">Other</tspan></text>
      <text class="cls-20" transform="translate(3862.45 770.45)"><tspan x="0" y="0">Romance</tspan></text>
      <text class="cls-20" transform="translate(4397.56 773.25)"><tspan x="0" y="0">Sci-Fi</tspan></text>
      <g id="areas">
        <g pointer-events="none">
          <g class="cls-27">
            <path class="cls-23" d="M224.2,2750.64c36.97,4.99,73.94,9.97,110.91,9.97s73.73-158.34,110.61-158.34,73.73,573.34,110.6,573.34,73.73-74.99,110.6-224.98c36.97-150.4,73.93-728.38,110.91-728.38s73.73,583.23,110.6,583.23,73.73-164.5,110.6-164.5,73.73,232.32,110.6,263.21c36.97,30.96,73.94,17.12,110.91,46.44,36.87,29.24,73.73,129.02,110.6,129.02s73.73-265.13,110.6-404.04c36.87-138.92,73.73-429.44,110.6-429.44s73.94,215.72,110.91,325.54c36.87,109.52,73.73,332.47,110.6,332.47s73.73-197.41,110.6-263.21c36.87-65.8,73.73-131.6,110.6-131.6s73.94,251.24,110.91,251.24,73.73-3.32,110.6-9.97c36.87-6.65,73.74-241.27,110.61-241.27s73.73,131.6,110.6,131.6,73.93-47.91,110.91-82.25c36.87-34.24,73.73-106.93,110.6-123.38,36.87-16.45,73.73-24.67,110.6-24.67s73.73,37.18,110.6,75.47c36.97,38.4,73.94,111.13,110.91,154.83,36.87,43.58,73.73,107.12,110.6,107.12s73.73-111.84,110.6-145.82c36.87-33.98,73.73-58.06,110.6-58.06s73.94,96.77,110.91,96.77,73.73-154.83,110.6-154.83,73.73,99.99,110.6,99.99,73.73-34.08,110.6-34.08,73.94,45.05,110.91,45.05,73.73-200.54,110.6-200.54,73.74,337,110.61,373.66c36.87,36.66,73.73,54.99,110.6,54.99s73.93-326.51,110.91-326.51,73.73,33.62,110.6,78.07c36.87,44.46,73.73,188.68,110.6,188.68s73.73-62.24,110.6-124.49v658.01s0,0,0,0H224.2v-548.34Z"/>
          </g>
        </g>
        <g pointer-events="none">
          <g class="cls-25">
            <path class="cls-53" d="M224.2,2641.27c36.97,59.82,73.94,119.64,110.91,119.64s73.73-274.46,110.61-274.46,73.73,566.08,110.6,566.08,73.73-165.99,110.6-333.85c36.97-168.31,73.93-675.6,110.91-675.6s73.73,461.1,110.6,515.94c36.87,54.84,73.73,82.25,110.6,82.25h110.6c36.97,0,73.94,309.65,110.91,309.65s73.73-194.55,110.6-309.65c36.87-115.1,73.73-371.72,110.6-380.95,36.87-9.24,73.73-13.85,110.6-13.85s73.94,215.72,110.91,325.54c36.87,109.52,73.73,332.47,110.6,332.47s73.73-453.3,110.6-482.54c36.87-29.24,73.73-25.62,110.6-43.87,36.97-18.29,73.94-65.8,110.91-65.8s73.73,329.01,110.6,329.01,73.74-303.42,110.61-394.8c36.87-91.39,73.73-153.54,110.6-153.54s73.93,219.34,110.91,219.34,73.73-90.48,110.6-123.38c36.87-32.9,73.73-74.02,110.6-74.02s73.73,117.57,110.6,139.34c36.97,21.84,73.94,31.18,110.91,32.75,36.87,1.57,73.73.78,110.6,2.35,36.87,1.57,73.73,139.07,110.6,139.07s73.73-99.29,110.6-116.12c36.97-16.87,73.94-25.31,110.91-25.31s73.73,1.98,110.6,5.95c36.87,3.97,73.73,19.36,110.6,19.36s73.73-186.73,110.6-186.73,73.94,340.27,110.91,340.27,73.73-294.54,110.6-294.54,73.74,309.26,110.61,352.51c36.87,43.24,73.73,64.86,110.6,64.86s73.93-63.61,110.91-89.63c36.87-25.95,73.73-66.37,110.6-66.37s73.73,119.72,110.6,119.72,73.73-78.92,110.6-157.83v246.75s0,0,0,0c-36.87,62.24-73.73,124.49-110.6,124.49s-73.73-144.22-110.6-188.68c-36.87-44.46-73.73-78.07-110.6-78.07s-73.94,326.51-110.91,326.51-73.73-18.33-110.6-54.99c-36.87-36.66-73.74-373.66-110.61-373.66s-73.73,200.54-110.6,200.54-73.93-45.05-110.91-45.05-73.73,34.08-110.6,34.08-73.73-99.99-110.6-99.99-73.73,154.83-110.6,154.83-73.94-96.77-110.91-96.77-73.73,24.08-110.6,58.06c-36.87,33.98-73.73,145.82-110.6,145.82s-73.73-63.54-110.6-107.12c-36.97-43.7-73.94-116.43-110.91-154.83-36.87-38.29-73.73-75.47-110.6-75.47s-73.73,8.22-110.6,24.67c-36.87,16.45-73.73,89.14-110.6,123.38-36.97,34.34-73.94,82.25-110.91,82.25s-73.73-131.6-110.6-131.6-73.73,234.62-110.61,241.27c-36.87,6.65-73.73,9.97-110.6,9.97s-73.93-251.24-110.91-251.24-73.73,65.8-110.6,131.6c-36.87,65.8-73.73,263.21-110.6,263.21s-73.73-222.95-110.6-332.47c-36.97-109.82-73.93-325.54-110.91-325.54s-73.73,290.52-110.6,429.44c-36.87,138.91-73.73,404.04-110.6,404.04s-73.73-99.78-110.6-129.02c-36.97-29.32-73.94-15.48-110.91-46.44-36.87-30.88-73.73-263.21-110.6-263.21s-73.73,164.5-110.6,164.5-73.73-583.23-110.6-583.23-73.94,577.99-110.91,728.38c-36.87,149.99-73.73,224.98-110.6,224.98s-73.73-573.34-110.6-573.34-73.74,158.34-110.61,158.34-73.93-4.99-110.91-9.97v-109.67Z"/>
          </g>
        </g>
        <g pointer-events="none">
          <g class="cls-28">
            <path class="cls-59" d="M224.2,2421.93c36.97,169.49,73.94,338.98,110.91,338.98s73.73-274.46,110.61-274.46,73.73,566.08,110.6,566.08,73.73-398.02,110.6-566.08c36.97-168.53,73.93-443.36,110.91-443.36s73.73,292.86,110.6,392.56c36.87,99.7,73.73,205.63,110.6,205.63s73.73-131.6,110.6-131.6,73.94,441.25,110.91,441.25,73.73-534.76,110.6-638.66c36.87-103.9,73.73-155.84,110.6-155.84s73.73,55.47,110.6,90.04c36.97,34.66,73.94,39.25,110.91,117.75,36.87,78.29,73.73,540.26,110.6,540.26s73.73-701.88,110.6-701.88,73.73,43.87,110.6,43.87,73.94-293.12,110.91-293.12,73.73,468.58,110.6,468.58,73.74-570.27,110.61-570.27,73.73,7.31,110.6,21.94c36.97,14.66,73.93,36.49,110.91,68.54,36.87,31.97,73.73,123.38,110.6,123.38s73.73-246.75,110.6-246.75,73.73,319.33,110.6,319.33,73.94-32.85,110.91-53.59c36.87-20.68,73.73-70.63,110.6-70.63s73.73,182.28,110.6,182.28,73.73-56.08,110.6-58.06c36.97-1.99,73.94-2.98,110.91-2.98s73.73,80.39,110.6,80.39,73.73-4.3,110.6-12.9c36.87-8.6,73.73-237.12,110.6-237.12s73.94,237.12,110.91,237.12,73.73-87.74,110.6-87.74,73.74,74.26,110.61,126.9c36.87,52.64,73.73,188.94,110.6,188.94s73.93-198.47,110.91-198.47,73.73,2.6,110.6,7.81c36.87,5.21,73.73,98.9,110.6,98.9s73.73-33.9,110.6-67.8v123.38s0,0,0,0c-36.87,78.92-73.73,157.83-110.6,157.83s-73.73-119.72-110.6-119.72-73.73,40.41-110.6,66.37c-36.97,26.02-73.94,89.63-110.91,89.63s-73.73-21.62-110.6-64.86c-36.87-43.24-73.74-352.51-110.61-352.51s-73.73,294.54-110.6,294.54-73.93-340.27-110.91-340.27-73.73,186.73-110.6,186.73-73.73-15.38-110.6-19.36c-36.87-3.97-73.73-5.95-110.6-5.95s-73.94,8.43-110.91,25.31c-36.87,16.82-73.73,116.12-110.6,116.12s-73.73-137.5-110.6-139.07c-36.87-1.57-73.73-.78-110.6-2.35-36.97-1.57-73.94-10.92-110.91-32.75-36.87-21.77-73.73-139.34-110.6-139.34s-73.73,41.12-110.6,74.02c-36.87,32.9-73.73,123.38-110.6,123.38s-73.94-219.34-110.91-219.34-73.73,62.15-110.6,153.54c-36.87,91.39-73.73,394.8-110.61,394.8s-73.73-329.01-110.6-329.01-73.93,47.51-110.91,65.8c-36.87,18.24-73.73,14.62-110.6,43.87-36.87,29.25-73.73,482.54-110.6,482.54s-73.73-222.95-110.6-332.47c-36.97-109.82-73.93-325.54-110.91-325.54s-73.73,4.62-110.6,13.85c-36.87,9.24-73.73,265.85-110.6,380.95-36.87,115.1-73.73,309.65-110.6,309.65s-73.94-309.65-110.91-309.65h-110.6c-36.87,0-73.73-27.42-110.6-82.25-36.87-54.84-73.73-515.94-110.6-515.94s-73.94,507.29-110.91,675.6c-36.87,167.86-73.73,333.85-110.6,333.85s-73.73-566.08-110.6-566.08-73.74,274.46-110.61,274.46-73.93-59.82-110.91-119.64v-219.34Z"/>
          </g>
        </g>
        <g pointer-events="none">
          <g class="cls-26">
            <path class="cls-52" d="M224.2,1983.55c36.97,209.37,73.94,418.73,110.91,418.73s73.73-147.79,110.61-147.79,73.73,428.19,110.6,428.19,73.73-555.15,110.6-660.43c36.97-105.56,73.93-158.34,110.91-158.34s73.73,99.7,110.6,201.89c36.87,102.19,73.73,411.26,110.6,411.26s73.73-361.9,110.6-361.9,73.94,603.82,110.91,603.82,73.73-712.33,110.6-735.42c36.87-23.09,73.73-34.63,110.6-34.63s73.73,138.6,110.6,166.24c36.97,27.71,73.94,13.85,110.91,41.56,36.87,27.63,73.73,353.25,110.6,353.25s73.73-526.41,110.6-526.41h110.6c36.97,0,73.94-299.09,110.91-299.09s73.73,628.1,110.6,628.1,73.74-723.81,110.61-723.81,73.73,139.01,110.6,175.47c36.97,36.56,73.93,25.06,110.91,54.84,36.87,29.69,73.73,123.37,110.6,123.37s73.73-222.08,110.6-222.08,73.73,301.91,110.6,301.91,73.94-136,110.91-139.94c36.87-3.92,73.73-5.88,110.6-5.88s73.73,203.88,110.6,203.88,73.73-116.12,110.6-116.12,73.94,6.45,110.91,19.36c36.87,12.87,73.73,116.12,110.6,116.12s73.73-2.15,110.6-6.45c36.87-4.3,73.73-340.86,110.6-340.86s73.94,275.06,110.91,275.06,73.73-137.87,110.6-137.87,73.74,143.35,110.61,176.25c36.87,32.9,73.73,42.26,110.6,49.35,36.97,7.11,73.93,10.67,110.91,10.67s73.73-29.93,110.6-29.93,73.73,29.93,110.6,29.93,73.73-30.01,110.6-60.02v205.63s0,0,0,0c-36.87,33.9-73.73,67.8-110.6,67.8s-73.73-93.69-110.6-98.9c-36.87-5.2-73.73-7.81-110.6-7.81s-73.94,198.47-110.91,198.47-73.73-136.3-110.6-188.94c-36.87-52.64-73.74-126.9-110.61-126.9s-73.73,87.74-110.6,87.74-73.93-237.12-110.91-237.12-73.73,228.52-110.6,237.12c-36.87,8.6-73.73,12.9-110.6,12.9s-73.73-80.39-110.6-80.39-73.94.99-110.91,2.98c-36.87,1.98-73.73,58.06-110.6,58.06s-73.73-182.28-110.6-182.28-73.73,49.95-110.6,70.63c-36.97,20.74-73.94,53.59-110.91,53.59s-73.73-319.33-110.6-319.33-73.73,246.75-110.6,246.75-73.73-91.41-110.6-123.38c-36.97-32.05-73.94-53.88-110.91-68.54-36.87-14.62-73.73-21.94-110.6-21.94s-73.73,570.27-110.61,570.27-73.73-468.58-110.6-468.58-73.93,293.12-110.91,293.12-73.73-43.87-110.6-43.87-73.73,701.88-110.6,701.88-73.73-461.98-110.6-540.26c-36.97-78.5-73.93-83.08-110.91-117.75-36.87-34.57-73.73-90.04-110.6-90.04s-73.73,51.95-110.6,155.84c-36.87,103.9-73.73,638.66-110.6,638.66s-73.94-441.25-110.91-441.25-73.73,131.6-110.6,131.6-73.73-105.93-110.6-205.63c-36.87-99.7-73.73-392.56-110.6-392.56s-73.94,274.84-110.91,443.36c-36.87,168.07-73.73,566.08-110.6,566.08s-73.73-566.08-110.6-566.08-73.74,274.46-110.61,274.46-73.93-169.49-110.91-338.98v-438.67Z"/>
          </g>
        </g>
        <g pointer-events="none">
          <g class="cls-42">
            <path class="cls-49" d="M224.2,1873.88c36.97,84.74,73.94,169.49,110.91,169.49s73.73-21.12,110.61-21.12,73.73,166.92,110.6,166.92,73.73-399.16,110.6-399.16,73.93,48.46,110.91,73.9c36.87,25.37,73.73,31.15,110.6,78.51,36.87,47.36,73.73,205.63,110.6,205.63s73.73-32.9,110.6-32.9,73.94,139.34,110.91,139.34,73.73-599.95,110.6-599.95,73.73,28.86,110.6,86.58c36.87,57.72,73.73,374.03,110.6,374.03s73.94-166.24,110.91-166.24,73.73,363.64,110.6,363.64,73.73-339.97,110.6-438.67c36.87-98.7,73.73-129.68,110.6-153.54,36.97-23.93,73.94-35.89,110.91-35.89s73.73,408.76,110.6,408.76,73.74-636.07,110.61-636.07,73.73,137.15,110.6,197.4c36.97,60.42,73.93,116.48,110.91,164.5,36.87,47.9,73.73,123.37,110.6,123.37s73.73-222.08,110.6-222.08,73.73,69.67,110.6,69.67,73.94-59.55,110.91-59.55,73.73,61.1,110.6,100.06c36.87,38.96,73.73,133.67,110.6,133.67s73.73-174.18,110.6-174.18,73.94,110.66,110.91,142.92c36.87,32.17,73.73,50.62,110.6,50.62s73.73-18.28,110.6-54.84c36.87-36.56,73.73-229.71,110.6-229.71s73.94,284.54,110.91,284.54,73.73-141,110.6-150.4c36.87-9.4,73.74-14.1,110.61-14.1s73.73,95.99,110.6,138.18c36.97,42.31,73.93,115.24,110.91,115.24s73.73-121.02,110.6-121.02,73.73,67.66,110.6,67.66,73.73-58.91,110.6-117.82v164.5s0,0,0,0c-36.87,30.01-73.73,60.02-110.6,60.02s-73.73-29.93-110.6-29.93-73.73,29.93-110.6,29.93-73.94-3.56-110.91-10.67c-36.87-7.09-73.73-16.45-110.6-49.35-36.87-32.9-73.74-176.25-110.61-176.25s-73.73,137.87-110.6,137.87-73.93-275.06-110.91-275.06-73.73,336.56-110.6,340.86c-36.87,4.3-73.73,6.45-110.6,6.45s-73.73-103.25-110.6-116.12c-36.97-12.9-73.94-19.36-110.91-19.36s-73.73,116.12-110.6,116.12-73.73-203.88-110.6-203.88-73.73,1.96-110.6,5.88c-36.97,3.94-73.94,139.94-110.91,139.94s-73.73-301.91-110.6-301.91-73.73,222.08-110.6,222.08-73.73-93.68-110.6-123.37c-36.97-29.77-73.94-18.28-110.91-54.84-36.87-36.46-73.73-175.47-110.6-175.47s-73.73,723.81-110.61,723.81-73.73-628.1-110.6-628.1-73.93,299.09-110.91,299.09h-110.6c-36.87,0-73.73,526.41-110.6,526.41s-73.73-325.62-110.6-353.25c-36.97-27.71-73.93-13.85-110.91-41.56-36.87-27.63-73.73-166.24-110.6-166.24s-73.73,11.54-110.6,34.63c-36.87,23.09-73.73,735.42-110.6,735.42s-73.94-603.82-110.91-603.82-73.73,361.9-110.6,361.9-73.73-309.06-110.6-411.26c-36.87-102.19-73.73-201.89-110.6-201.89s-73.94,52.78-110.91,158.34c-36.87,105.28-73.73,660.43-110.6,660.43s-73.73-428.19-110.6-428.19-73.74,147.79-110.61,147.79-73.93-209.36-110.91-418.73v-109.67Z"/>
          </g>
        </g>
        <g pointer-events="none">
          <g class="cls-43">
            <path class="cls-10" d="M224.2,1434.59c36.97,124.63,73.94,249.25,110.91,249.25s73.73-66.86,110.61-126.68c36.87-59.82,73.73-232.24,110.6-232.24s73.73,232.24,110.6,232.24,73.93-52.78,110.91-52.78,73.73,190.67,110.6,190.67,73.73-13.71,110.6-41.12,73.73-329.01,110.6-329.01,73.94,232.24,110.91,232.24,73.73-118.72,110.6-122.57c36.87-3.85,73.73-5.77,110.6-5.77s73.73,277.1,110.6,290.91c36.97,13.85,73.94,20.78,110.91,20.78s73.73-6.93,110.6-20.78c36.87-13.85,73.73-131.6,110.6-175.47,36.87-43.87,73.73-66.14,110.6-87.74,36.97-21.65,73.94-41.88,110.91-41.88s73.73,348.95,110.6,348.95,73.74-307.07,110.61-307.07,73.73,48.06,110.6,87.74c36.97,39.78,73.93,150.79,110.91,150.79s73.73-123.37,110.6-123.37,73.73,49.35,110.6,49.35,73.73-63.87,110.6-63.87,73.94,20.84,110.91,20.84,73.73-23.54,110.6-23.54,73.73,2.7,110.6,2.7h110.6c36.97,0,73.94,45.61,110.91,71.46,36.87,25.77,73.73,83.37,110.6,83.37s73.73-1.08,110.6-3.23c36.87-2.15,73.73-170.43,110.6-170.43s73.94,108.2,110.91,137.53c36.87,29.25,73.73,43.87,110.6,43.87s73.74-147.58,110.61-183.3c36.87-35.72,73.73-53.58,110.6-53.58s73.93,268.9,110.91,268.9,73.73-13.88,110.6-41.65c36.87-27.76,73.73-171.76,110.6-171.76s73.73,16.67,110.6,33.34v329.01s0,0,0,0c-36.87,58.91-73.73,117.82-110.6,117.82s-73.73-67.66-110.6-67.66-73.73,121.02-110.6,121.02-73.94-72.93-110.91-115.24c-36.87-42.19-73.73-138.18-110.6-138.18s-73.74,4.7-110.61,14.1c-36.87,9.4-73.73,150.4-110.6,150.4s-73.93-284.54-110.91-284.54-73.73,193.15-110.6,229.71c-36.87,36.56-73.73,54.84-110.6,54.84s-73.73-18.45-110.6-50.62c-36.97-32.26-73.94-142.92-110.91-142.92s-73.73,174.18-110.6,174.18-73.73-94.72-110.6-133.67c-36.87-38.96-73.73-100.06-110.6-100.06s-73.94,59.55-110.91,59.55-73.73-69.67-110.6-69.67-73.73,222.08-110.6,222.08-73.73-75.48-110.6-123.37c-36.97-48.03-73.94-104.09-110.91-164.5-36.87-60.25-73.73-197.4-110.6-197.4s-73.73,636.07-110.61,636.07-73.73-408.76-110.6-408.76-73.93,11.96-110.91,35.89c-36.87,23.86-73.73,54.84-110.6,153.54-36.87,98.7-73.73,438.67-110.6,438.67s-73.73-363.64-110.6-363.64-73.93,166.24-110.91,166.24-73.73-316.31-110.6-374.03c-36.87-57.72-73.73-86.58-110.6-86.58s-73.73,599.95-110.6,599.95-73.94-139.34-110.91-139.34-73.73,32.9-110.6,32.9-73.73-158.27-110.6-205.63c-36.87-47.36-73.73-53.14-110.6-78.51-36.97-25.44-73.94-73.9-110.91-73.9s-73.73,399.16-110.6,399.16-73.73-166.92-110.6-166.92-73.74,21.12-110.61,21.12-73.93-84.75-110.91-169.49v-438.68Z"/>
          </g>
        </g>
        <g pointer-events="none">
          <g class="cls-44">
            <path d="M227.5,1435.07c36.84,124.14,73.67,248.28,110.51,248.28s73.47-182.27,110.21-241.85c36.73-59.59,73.47-115.67,110.2-115.67h106.04c36.98,0,73.95,178.14,110.94,178.14s73.76-55.67,110.63-55.67,73.76,40.83,110.63,40.83,73.76-163.3,110.63-163.3,73.96,115.27,110.94,115.27c43.53,0,87.05-160.58,130.58-102.68,37.32-1.89,41.39-2.1,78.71-3.99,40.87-60.55,81.74,217.21,122.61,252.68,36.98,32.09,73.96,48.13,110.94,48.13s73.76-113.45,110.63-113.45,73.76,21.78,110.63,21.78c40.73,0,81.47-265.66,122.2-210.09,38.28-1.12,53.39-1.57,91.68-2.69,39.44-51.92,78.88,321.64,118.32,321.64,36.88,0,73.76-181.44,110.64-195.95,36.88-14.52,73.76-21.78,110.63-21.78s73.95,136.08,110.94,136.08h110.63c36.88,0,73.76-49.35,110.63-49.35s73.76,34.84,110.63,34.84,73.96-13.98,110.94-29.77c36.88-15.75,73.76-64.74,110.63-64.74s73.76,36.46,110.63,36.46h110.63c36.98,0,73.96,102.06,110.94,131.54,36.88,29.4,73.76,45.36,110.63,45.36s73.76-6.56,110.63-19.66c36.88-13.1,73.76-117.4,110.63-117.4s73.96,64.38,110.94,95.13c36.88,30.66,73.76,89.1,110.63,89.1s73.76-257.77,110.64-257.77,73.76,5.73,110.63,17.18c36.98,11.49,73.96,273.1,110.94,273.1s73.76-46.04,110.63-91.19c36.88-45.16,73.76-179.74,110.63-179.74s73.76,44.02,110.63,88.05h0s0,0,0,0c-36.88-16.93-73.76-33.87-110.63-33.87s-73.76,146.25-110.63,174.45c-36.88,28.2-73.76,42.3-110.63,42.3s-73.96-273.1-110.94-273.1-73.76,18.14-110.63,54.42c-36.88,36.28-73.76,186.16-110.64,186.16s-73.76-14.85-110.63-44.55c-36.98-29.78-73.96-139.68-110.94-139.68s-73.76,170.91-110.63,173.09c-36.88,2.18-73.76,3.28-110.63,3.28s-73.76-58.49-110.63-84.67c-36.98-26.25-73.96-72.58-110.94-72.58h-116.37c-36.73,0-73.47-2.69-110.2-2.69s-73.47,23.45-110.2,23.45-73.67-20.76-110.51-20.76-73.47,63.62-110.2,63.62-73.47-49.16-110.2-49.16-73.47,122.9-110.2,122.9-73.67-110.58-110.51-150.2c-36.73-39.52-73.47-87.39-110.2-87.39s-73.47,305.88-110.21,305.88-73.47-347.59-110.2-347.59-73.67,20.14-110.51,41.71c-36.73,21.51-73.47,43.7-110.2,87.39-36.73,43.7-73.47,160.99-110.2,174.78-36.73,13.8-73.47,20.7-110.2,20.7s-73.67-6.9-110.51-20.7c-36.73-13.76-73.47-289.78-110.2-289.78s-73.47,1.92-110.2,5.75c-36.73,3.84-73.47,122.1-110.2,122.1s-73.67-231.34-110.51-231.34-73.47,300.42-110.2,327.73c-36.73,27.31-73.47,40.96-110.2,40.96s-73.47-189.93-110.2-189.93-73.67,52.58-110.51,52.58-73.47-231.34-110.2-231.34-73.47,171.75-110.2,231.34c-36.74,59.59-73.47,126.18-110.21,126.18s-73.67-124.14-110.51-248.28Z"/>
          </g>
        </g>
        <g pointer-events="none">
          <g class="cls-45">
            <path class="cls-58" d="M224.2,1325.83h4427.14v244.94s0,0,0,0c-36.88-43.35-73.76-86.7-110.63-86.7s-73.76,132.51-110.63,176.97c-36.88,44.46-73.76,89.79-110.63,89.79s-73.96-257.59-110.94-268.9c-36.88-11.28-73.76-16.92-110.63-16.92s-73.76,253.8-110.64,253.8-73.76-57.54-110.63-87.73c-36.98-30.27-73.96-93.66-110.94-93.66s-73.76,102.7-110.63,115.6c-36.88,12.9-73.76,19.36-110.63,19.36s-73.76-15.71-110.63-44.66c-36.98-29.03-73.96-129.52-110.94-129.52h-110.63c-36.88,0-73.76-36.46-110.63-36.46s-73.76,48.99-110.63,64.74c-36.98,15.79-73.96,29.77-110.94,29.77s-73.76-34.84-110.63-34.84-73.76,49.35-110.63,49.35h-110.04c-36.97,0-73.94-136.08-110.91-136.08s-73.73,7.26-110.6,21.78c-36.87,14.51-73.73,195.95-110.61,195.95-39.43,0-78.86-373.57-118.29-321.64-38.28,1.12-53.37,1.57-91.65,2.69-40.72-55.57-81.45,210.09-122.17,210.09-36.87,0-73.73-21.78-110.6-21.78s-73.73,113.45-110.6,113.45-73.93-16.04-110.91-48.13c-40.85-35.46-81.71-313.16-122.56-252.69-37.33,1.89-41.39,2.1-78.72,3.99-43.51-57.84-87.02,102.7-130.53,102.7-36.97,0-73.94-115.27-110.91-115.27s-73.73,163.3-110.6,163.3-73.73-40.83-110.6-40.83-73.73,55.67-110.6,55.67-73.94-178.14-110.91-178.14h-110.6c-36.87,0-73.73,55.89-110.6,115.27-36.87,59.38-73.74,241.01-110.61,241.01s-73.93-123.71-110.91-247.42v-108.86Z"/>
          </g>
        </g>
      </g>
      <g id="lines">
        <g>
          <g class="cls-46">
            <path class="cls-1" d="M221.62,2751.42c36.98,4.99,73.96,9.97,110.94,9.97s73.76-158.34,110.64-158.34,73.76,573.34,110.63,573.34,73.76-74.99,110.63-224.98c36.98-150.4,73.95-728.38,110.94-728.38s73.76,583.23,110.63,583.23,73.76-164.5,110.63-164.5,73.76,232.32,110.63,263.21c36.98,30.96,73.96,17.12,110.94,46.44,36.88,29.24,73.76,129.02,110.63,129.02s73.76-265.13,110.63-404.04c36.88-138.91,73.76-429.44,110.63-429.44s73.96,215.72,110.94,325.54c36.88,109.52,73.76,332.47,110.63,332.47s73.76-197.41,110.63-263.21c36.88-65.8,73.76-131.6,110.63-131.6s73.96,251.24,110.94,251.24,73.76-3.32,110.63-9.97c36.88-6.65,73.76-241.27,110.64-241.27s73.76,131.6,110.63,131.6,73.95-47.91,110.94-82.25c36.88-34.24,73.76-106.93,110.63-123.38,36.88-16.45,73.76-24.67,110.63-24.67s73.76,37.18,110.63,75.47c36.98,38.4,73.96,111.13,110.94,154.83,36.88,43.58,73.76,107.12,110.63,107.12s73.76-111.84,110.63-145.82c36.88-33.98,73.76-58.06,110.63-58.06s73.96,96.77,110.94,96.77,73.76-154.83,110.63-154.83,73.76,99.99,110.63,99.99,73.76-34.08,110.63-34.08,73.96,45.05,110.94,45.05,73.76-200.54,110.63-200.54,73.76,337,110.64,373.66c36.88,36.66,73.76,54.99,110.63,54.99s73.96-326.51,110.94-326.51,73.76,33.62,110.63,78.07c36.88,44.46,73.76,188.68,110.63,188.68s73.76-62.24,110.63-124.49" pointer-events="none"/>
          </g>
          <g class="cls-47">
            <path class="cls-7" d="M221.62,2751.42c36.98,4.99,73.96,9.97,110.94,9.97s73.76-158.34,110.64-158.34,73.76,573.34,110.63,573.34,73.76-74.99,110.63-224.98c36.98-150.4,73.95-728.38,110.94-728.38s73.76,583.23,110.63,583.23,73.76-164.5,110.63-164.5,73.76,232.32,110.63,263.21c36.98,30.96,73.96,17.12,110.94,46.44,36.88,29.24,73.76,129.02,110.63,129.02s73.76-265.13,110.63-404.04c36.88-138.91,73.76-429.44,110.63-429.44s73.96,215.72,110.94,325.54c36.88,109.52,73.76,332.47,110.63,332.47s73.76-197.41,110.63-263.21c36.88-65.8,73.76-131.6,110.63-131.6s73.96,251.24,110.94,251.24,73.76-3.32,110.63-9.97c36.88-6.65,73.76-241.27,110.64-241.27s73.76,131.6,110.63,131.6,73.95-47.91,110.94-82.25c36.88-34.24,73.76-106.93,110.63-123.38,36.88-16.45,73.76-24.67,110.63-24.67s73.76,37.18,110.63,75.47c36.98,38.4,73.96,111.13,110.94,154.83,36.88,43.58,73.76,107.12,110.63,107.12s73.76-111.84,110.63-145.82c36.88-33.98,73.76-58.06,110.63-58.06s73.96,96.77,110.94,96.77,73.76-154.83,110.63-154.83,73.76,99.99,110.63,99.99,73.76-34.08,110.63-34.08,73.96,45.05,110.94,45.05,73.76-200.54,110.63-200.54,73.76,337,110.64,373.66c36.88,36.66,73.76,54.99,110.63,54.99s73.96-326.51,110.94-326.51,73.76,33.62,110.63,78.07c36.88,44.46,73.76,188.68,110.63,188.68s73.76-62.24,110.63-124.49" pointer-events="none"/>
          </g>
        </g>
        <g>
          <g class="cls-40">
            <path class="cls-1" d="M221.62,2641.27c36.98,59.82,73.96,119.64,110.94,119.64s73.76-274.46,110.64-274.46,73.76,566.08,110.63,566.08,73.76-165.99,110.63-333.85c36.98-168.31,73.95-675.6,110.94-675.6s73.76,461.1,110.63,515.94c36.88,54.84,73.76,82.25,110.63,82.25h110.63c36.98,0,73.96,309.65,110.94,309.65s73.76-194.55,110.63-309.65c36.88-115.1,73.76-371.72,110.63-380.95,36.88-9.24,73.76-13.85,110.63-13.85s73.96,215.72,110.94,325.54c36.88,109.52,73.76,332.47,110.63,332.47s73.76-453.3,110.63-482.54c36.88-29.24,73.76-25.62,110.63-43.87,36.98-18.29,73.96-65.8,110.94-65.8s73.76,329.01,110.63,329.01,73.76-303.42,110.64-394.8c36.88-91.39,73.76-153.54,110.63-153.54s73.95,219.34,110.94,219.34,73.76-90.48,110.63-123.38c36.88-32.9,73.76-74.02,110.63-74.02s73.76,117.57,110.63,139.34c36.98,21.84,73.96,31.18,110.94,32.75,36.88,1.57,73.76.78,110.63,2.35s73.76,139.07,110.63,139.07,73.76-99.29,110.63-116.12c36.98-16.87,73.96-25.31,110.94-25.31s73.76,1.98,110.63,5.95c36.88,3.97,73.76,19.36,110.63,19.36s73.76-186.73,110.63-186.73,73.96,340.27,110.94,340.27,73.76-294.54,110.63-294.54,73.76,309.26,110.64,352.51c36.88,43.24,73.76,64.86,110.63,64.86s73.96-63.61,110.94-89.63c36.88-25.95,73.76-66.37,110.63-66.37s73.76,119.72,110.63,119.72,73.76-78.92,110.63-157.83" pointer-events="none"/>
          </g>
          <g class="cls-38">
            <path class="cls-2" d="M221.62,2643.53c36.98,59.82,73.96,119.64,110.94,119.64s73.76-274.46,110.64-274.46,73.76,566.08,110.63,566.08,73.76-165.99,110.63-333.85c36.98-168.31,73.95-675.6,110.94-675.6s73.76,461.1,110.63,515.94c36.88,54.84,73.76,82.25,110.63,82.25h110.63c36.98,0,73.96,309.65,110.94,309.65s73.76-194.55,110.63-309.65c36.88-115.1,73.76-371.72,110.63-380.95,36.88-9.24,73.76-13.85,110.63-13.85s73.96,215.72,110.94,325.54c36.88,109.52,73.76,332.47,110.63,332.47s73.76-453.3,110.63-482.54c36.88-29.24,73.76-25.62,110.63-43.87,36.98-18.29,73.96-65.8,110.94-65.8s73.76,329.01,110.63,329.01,73.76-303.42,110.64-394.8c36.88-91.39,73.76-153.54,110.63-153.54s73.95,219.34,110.94,219.34,73.76-90.48,110.63-123.38c36.88-32.9,73.76-74.02,110.63-74.02s73.76,117.57,110.63,139.34c36.98,21.84,73.96,31.18,110.94,32.75,36.88,1.57,73.76.78,110.63,2.35,36.88,1.57,73.76,139.07,110.63,139.07s73.76-99.29,110.63-116.12c36.98-16.87,73.96-25.31,110.94-25.31s73.76,1.98,110.63,5.95c36.88,3.97,73.76,19.36,110.63,19.36s73.76-186.73,110.63-186.73,73.96,340.27,110.94,340.27,73.76-294.54,110.63-294.54,73.76,309.26,110.64,352.51c36.88,43.24,73.76,64.86,110.63,64.86s73.96-63.61,110.94-89.63c36.88-25.95,73.76-66.37,110.63-66.37s73.76,119.72,110.63,119.72,73.76-78.92,110.63-157.83" pointer-events="none"/>
          </g>
        </g>
        <g>
          <g class="cls-41">
            <path class="cls-1" d="M221.62,2422.41c36.98,169.49,73.96,338.98,110.94,338.98s73.76-274.46,110.64-274.46,73.76,566.08,110.63,566.08,73.76-398.02,110.63-566.08c36.98-168.53,73.95-443.36,110.94-443.36s73.76,292.86,110.63,392.56c36.88,99.7,73.76,205.63,110.63,205.63s73.76-131.6,110.63-131.6,73.96,441.25,110.94,441.25,73.76-534.76,110.63-638.66c36.88-103.9,73.76-155.84,110.63-155.84s73.76,55.47,110.63,90.04c36.98,34.66,73.96,39.25,110.94,117.75,36.88,78.29,73.76,540.26,110.63,540.26s73.76-701.88,110.63-701.88,73.76,43.87,110.63,43.87,73.96-293.12,110.94-293.12,73.76,468.58,110.63,468.58,73.76-570.27,110.64-570.27,73.76,7.31,110.63,21.94c36.98,14.66,73.95,36.49,110.94,68.54,36.88,31.97,73.76,123.38,110.63,123.38s73.76-246.75,110.63-246.75,73.76,319.33,110.63,319.33,73.96-32.85,110.94-53.59c36.88-20.68,73.76-70.63,110.63-70.63s73.76,182.28,110.63,182.28,73.76-56.08,110.63-58.06c36.98-1.99,73.96-2.98,110.94-2.98s73.76,80.39,110.63,80.39,73.76-4.3,110.63-12.9c36.88-8.6,73.76-237.12,110.63-237.12s73.96,237.12,110.94,237.12,73.76-87.74,110.63-87.74,73.76,74.26,110.64,126.9c36.88,52.64,73.76,188.94,110.63,188.94s73.96-198.47,110.94-198.47,73.76,2.6,110.63,7.81c36.88,5.21,73.76,98.9,110.63,98.9s73.76-33.9,110.63-67.8" pointer-events="none"/>
          </g>
          <g class="cls-39">
            <path class="cls-8" d="M221.62,2422.41c36.98,169.49,73.96,338.98,110.94,338.98s73.76-274.46,110.64-274.46,73.76,566.08,110.63,566.08,73.76-398.02,110.63-566.08c36.98-168.53,73.95-443.36,110.94-443.36s73.76,292.86,110.63,392.56c36.88,99.7,73.76,205.63,110.63,205.63s73.76-131.6,110.63-131.6,73.96,441.25,110.94,441.25,73.76-534.76,110.63-638.66c36.88-103.9,73.76-155.84,110.63-155.84s73.76,55.47,110.63,90.04c36.98,34.66,73.96,39.25,110.94,117.75,36.88,78.29,73.76,540.26,110.63,540.26s73.76-701.88,110.63-701.88,73.76,43.87,110.63,43.87,73.96-293.12,110.94-293.12,73.76,468.58,110.63,468.58,73.76-570.27,110.64-570.27,73.76,7.31,110.63,21.94c36.98,14.66,73.95,36.49,110.94,68.54,36.88,31.97,73.76,123.38,110.63,123.38s73.76-246.75,110.63-246.75,73.76,319.33,110.63,319.33,73.96-32.85,110.94-53.59c36.88-20.68,73.76-70.63,110.63-70.63s73.76,182.28,110.63,182.28,73.76-56.08,110.63-58.06c36.98-1.99,73.96-2.98,110.94-2.98s73.76,80.39,110.63,80.39,73.76-4.3,110.63-12.9c36.88-8.6,73.76-237.12,110.63-237.12s73.96,237.12,110.94,237.12,73.76-87.74,110.63-87.74,73.76,74.26,110.64,126.9c36.88,52.64,73.76,188.94,110.63,188.94s73.96-198.47,110.94-198.47,73.76,2.6,110.63,7.81c36.88,5.21,73.76,98.9,110.63,98.9s73.76-33.9,110.63-67.8" pointer-events="none"/>
          </g>
        </g>
        <g>
          <g class="cls-35">
            <path class="cls-1" d="M221.62,1983.55c36.98,209.37,73.96,418.73,110.94,418.73s73.76-147.79,110.64-147.79,73.76,428.19,110.63,428.19,73.76-555.15,110.63-660.43c36.98-105.56,73.95-158.34,110.94-158.34s73.76,99.7,110.63,201.89c36.88,102.19,73.76,411.26,110.63,411.26s73.76-361.9,110.63-361.9,73.96,603.82,110.94,603.82,73.76-712.33,110.63-735.42c36.88-23.09,73.76-34.63,110.63-34.63s73.76,138.6,110.63,166.24c36.98,27.71,73.96,13.85,110.94,41.56,36.88,27.63,73.76,353.25,110.63,353.25s73.76-526.41,110.63-526.41h110.63c36.98,0,73.96-299.09,110.94-299.09s73.76,628.1,110.63,628.1,73.76-723.81,110.64-723.81,73.76,139.01,110.63,175.47c36.98,36.56,73.95,25.06,110.94,54.84,36.88,29.69,73.76,123.37,110.63,123.37s73.76-222.08,110.63-222.08,73.76,301.91,110.63,301.91,73.96-136,110.94-139.94c36.88-3.92,73.76-5.88,110.63-5.88s73.76,203.88,110.63,203.88,73.76-116.12,110.63-116.12,73.96,6.45,110.94,19.36c36.88,12.87,73.76,116.12,110.63,116.12s73.76-2.15,110.63-6.45c36.88-4.3,73.76-340.86,110.63-340.86s73.96,275.06,110.94,275.06,73.76-137.87,110.63-137.87,73.76,143.35,110.64,176.25c36.88,32.9,73.76,42.26,110.63,49.35,36.98,7.11,73.96,10.67,110.94,10.67s73.76-29.93,110.63-29.93,73.76,29.93,110.63,29.93,73.76-30.01,110.63-60.02" pointer-events="none"/>
          </g>
          <g class="cls-29">
            <path class="cls-6" d="M221.62,1985.81c36.98,209.37,73.96,418.73,110.94,418.73s73.76-147.79,110.64-147.79,73.76,428.19,110.63,428.19,73.76-555.15,110.63-660.43c36.98-105.56,73.95-158.34,110.94-158.34s73.76,99.7,110.63,201.89c36.88,102.19,73.76,411.26,110.63,411.26s73.76-361.9,110.63-361.9,73.96,603.82,110.94,603.82,73.76-712.33,110.63-735.42c36.88-23.09,73.76-34.63,110.63-34.63s73.76,138.6,110.63,166.24c36.98,27.71,73.96,13.85,110.94,41.56,36.88,27.63,73.76,353.25,110.63,353.25s73.76-526.41,110.63-526.41h110.63c36.98,0,73.96-299.09,110.94-299.09s73.76,628.1,110.63,628.1,73.76-723.81,110.64-723.81,73.76,139.01,110.63,175.47c36.98,36.56,73.95,25.06,110.94,54.84,36.88,29.69,73.76,123.37,110.63,123.37s73.76-222.08,110.63-222.08,73.76,301.91,110.63,301.91,73.96-136,110.94-139.94c36.88-3.92,73.76-5.88,110.63-5.88s73.76,203.88,110.63,203.88,73.76-116.12,110.63-116.12,73.96,6.45,110.94,19.36c36.88,12.87,73.76,116.12,110.63,116.12s73.76-2.15,110.63-6.45c36.88-4.3,73.76-340.86,110.63-340.86s73.96,275.06,110.94,275.06,73.76-137.87,110.63-137.87,73.76,143.35,110.64,176.25c36.88,32.9,73.76,42.26,110.63,49.35,36.98,7.11,73.96,10.67,110.94,10.67s73.76-29.93,110.63-29.93,73.76,29.93,110.63,29.93,73.76-30.01,110.63-60.02" pointer-events="none"/>
          </g>
        </g>
        <g>
          <g class="cls-30">
            <path class="cls-1" d="M221.62,1874.07c36.98,84.74,73.96,169.49,110.94,169.49s73.76-21.12,110.64-21.12,73.76,166.92,110.63,166.92,73.76-399.16,110.63-399.16,73.95,48.46,110.94,73.9c36.88,25.37,73.76,31.15,110.63,78.51,36.88,47.36,73.76,205.63,110.63,205.63s73.76-32.9,110.63-32.9,73.96,139.34,110.94,139.34,73.76-599.95,110.63-599.95,73.76,28.86,110.63,86.58c36.88,57.72,73.76,374.03,110.63,374.03s73.96-166.24,110.94-166.24,73.76,363.64,110.63,363.64,73.76-339.97,110.63-438.67c36.88-98.7,73.76-129.68,110.63-153.54,36.98-23.93,73.96-35.89,110.94-35.89s73.76,408.76,110.63,408.76,73.76-636.07,110.64-636.07,73.76,137.15,110.63,197.4c36.98,60.42,73.95,116.48,110.94,164.5,36.88,47.9,73.76,123.37,110.63,123.37s73.76-222.08,110.63-222.08,73.76,69.67,110.63,69.67,73.96-59.55,110.94-59.55,73.76,61.1,110.63,100.06c36.88,38.96,73.76,133.67,110.63,133.67s73.76-174.18,110.63-174.18,73.96,110.66,110.94,142.92c36.88,32.17,73.76,50.62,110.63,50.62s73.76-18.28,110.63-54.84c36.88-36.56,73.76-229.71,110.63-229.71s73.96,284.54,110.94,284.54,73.76-141,110.63-150.4c36.88-9.4,73.76-14.1,110.64-14.1s73.76,95.99,110.63,138.18c36.98,42.31,73.96,115.24,110.94,115.24s73.76-121.02,110.63-121.02,73.76,67.66,110.63,67.66,73.76-58.91,110.63-117.82" pointer-events="none"/>
          </g>
          <g class="cls-31">
            <path class="cls-4" d="M221.62,1874.07c36.98,84.74,73.96,169.49,110.94,169.49s73.76-21.12,110.64-21.12,73.76,166.92,110.63,166.92,73.76-399.16,110.63-399.16,73.95,48.46,110.94,73.9c36.88,25.37,73.76,31.15,110.63,78.51,36.88,47.36,73.76,205.63,110.63,205.63s73.76-32.9,110.63-32.9,73.96,139.34,110.94,139.34,73.76-599.95,110.63-599.95,73.76,28.86,110.63,86.58c36.88,57.72,73.76,374.03,110.63,374.03s73.96-166.24,110.94-166.24,73.76,363.64,110.63,363.64,73.76-339.97,110.63-438.67c36.88-98.7,73.76-129.68,110.63-153.54,36.98-23.93,73.96-35.89,110.94-35.89s73.76,408.76,110.63,408.76,73.76-636.07,110.64-636.07,73.76,137.15,110.63,197.4c36.98,60.42,73.95,116.48,110.94,164.5,36.88,47.9,73.76,123.37,110.63,123.37s73.76-222.08,110.63-222.08,73.76,69.67,110.63,69.67,73.96-59.55,110.94-59.55,73.76,61.1,110.63,100.06c36.88,38.96,73.76,133.67,110.63,133.67s73.76-174.18,110.63-174.18,73.96,110.66,110.94,142.92c36.88,32.17,73.76,50.62,110.63,50.62s73.76-18.28,110.63-54.84c36.88-36.56,73.76-229.71,110.63-229.71s73.96,284.54,110.94,284.54,73.76-141,110.63-150.4c36.88-9.4,73.76-14.1,110.64-14.1s73.76,95.99,110.63,138.18c36.98,42.31,73.96,115.24,110.94,115.24s73.76-121.02,110.63-121.02,73.76,67.66,110.63,67.66,73.76-58.91,110.63-117.82" pointer-events="none"/>
          </g>
        </g>
        <g>
          <g class="cls-32">
            <path class="cls-1" d="M221.62,1434.59c36.98,124.63,73.96,249.25,110.94,249.25s73.76-66.86,110.64-126.68c36.88-59.82,73.76-232.24,110.63-232.24s73.76,232.24,110.63,232.24,73.95-52.78,110.94-52.78,73.76,190.67,110.63,190.67,73.76-13.71,110.63-41.12c36.88-27.42,73.76-329.01,110.63-329.01s73.96,232.24,110.94,232.24,73.76-118.72,110.63-122.57c36.88-3.85,73.76-5.77,110.63-5.77s73.76,277.1,110.63,290.91c36.98,13.85,73.96,20.78,110.94,20.78s73.76-6.93,110.63-20.78c36.88-13.85,73.76-131.6,110.63-175.47,36.88-43.87,73.76-66.14,110.63-87.74,36.98-21.65,73.96-41.88,110.94-41.88s73.76,348.95,110.63,348.95,73.76-307.07,110.64-307.07,73.76,48.06,110.63,87.74c36.98,39.78,73.95,150.79,110.94,150.79s73.76-123.37,110.63-123.37,73.76,49.35,110.63,49.35,73.76-63.87,110.63-63.87,73.96,20.84,110.94,20.84,73.76-23.54,110.63-23.54,73.76,2.7,110.63,2.7h110.63c36.98,0,73.96,45.61,110.94,71.46,36.88,25.77,73.76,83.37,110.63,83.37s73.76-1.08,110.63-3.23c36.88-2.15,73.76-170.43,110.63-170.43s73.96,108.2,110.94,137.53c36.88,29.25,73.76,43.87,110.63,43.87s73.76-147.58,110.64-183.3c36.88-35.72,73.76-53.58,110.63-53.58s73.96,268.9,110.94,268.9,73.76-13.88,110.63-41.65c36.88-27.76,73.76-171.76,110.63-171.76s73.76,16.67,110.63,33.34" pointer-events="none"/>
          </g>
          <g class="cls-33">
            <path class="cls-5" d="M221.62,1436.86c36.98,124.63,73.96,249.25,110.94,249.25s73.76-66.86,110.64-126.68c36.88-59.82,73.76-232.24,110.63-232.24s73.76,232.24,110.63,232.24,73.95-52.78,110.94-52.78,73.76,190.67,110.63,190.67,73.76-13.71,110.63-41.12c36.88-27.42,73.76-329.01,110.63-329.01s73.96,232.24,110.94,232.24,73.76-118.72,110.63-122.57c36.88-3.85,73.76-5.77,110.63-5.77s73.76,277.1,110.63,290.91c36.98,13.85,73.96,20.78,110.94,20.78s73.76-6.93,110.63-20.78c36.88-13.85,73.76-131.6,110.63-175.47,36.88-43.87,73.76-66.14,110.63-87.74,36.98-21.65,73.96-41.88,110.94-41.88s73.76,348.95,110.63,348.95,73.76-307.07,110.64-307.07,73.76,48.06,110.63,87.74c36.98,39.78,73.95,150.79,110.94,150.79s73.76-123.37,110.63-123.37,73.76,49.35,110.63,49.35,73.76-63.87,110.63-63.87,73.96,20.84,110.94,20.84,73.76-23.54,110.63-23.54,73.76,2.7,110.63,2.7h110.63c36.98,0,73.96,45.61,110.94,71.46,36.88,25.77,73.76,83.37,110.63,83.37s73.76-1.08,110.63-3.23c36.88-2.15,73.76-170.43,110.63-170.43s73.96,108.2,110.94,137.53c36.88,29.25,73.76,43.87,110.63,43.87s73.76-147.58,110.64-183.3c36.88-35.72,73.76-53.58,110.63-53.58s73.96,268.9,110.94,268.9,73.76-13.88,110.63-41.65c36.88-27.76,73.76-171.76,110.63-171.76s73.76,16.67,110.63,33.34" pointer-events="none"/>
          </g>
        </g>
        <g>
          <g class="cls-36">
            <path class="cls-1" d="M221.62,1435.49c36.98,124.63,73.96,249.25,110.94,249.25s73.76-182.98,110.64-242.79c36.88-59.82,73.76-116.12,110.63-116.12h110.63c36.98,0,73.95,178.14,110.94,178.14s73.76-55.67,110.63-55.67,73.76,40.83,110.63,40.83,73.76-163.3,110.63-163.3,73.96,115.27,110.94,115.27c43.53,0,87.05-160.58,130.58-102.68,37.32-1.89,41.39-2.1,78.71-3.99,40.87-60.55,81.74,217.21,122.61,252.68,36.98,32.09,73.96,48.13,110.94,48.13s73.76-113.45,110.63-113.45,73.76,21.78,110.63,21.78c40.73,0,81.47-265.66,122.2-210.09,38.28-1.12,53.39-1.57,91.68-2.69,39.44-51.92,78.88,321.64,118.32,321.64,36.88,0,73.76-181.44,110.64-195.95,36.88-14.52,73.76-21.78,110.63-21.78s73.95,136.08,110.94,136.08h110.63c36.88,0,73.76-49.35,110.63-49.35s73.76,34.84,110.63,34.84,73.96-13.98,110.94-29.77c36.88-15.75,73.76-64.74,110.63-64.74s73.76,36.46,110.63,36.46h110.63c36.98,0,73.96,100.49,110.94,129.52,36.88,28.95,73.76,44.66,110.63,44.66s73.76-6.45,110.63-19.36c36.88-12.9,73.76-115.6,110.63-115.6s73.96,63.39,110.94,93.66c36.88,30.19,73.76,87.73,110.63,87.73s73.76-253.8,110.64-253.8,73.76,5.64,110.63,16.92c36.98,11.31,73.96,268.9,110.94,268.9s73.76-45.33,110.63-89.79c36.88-44.46,73.76-176.97,110.63-176.97s73.76,43.35,110.63,86.7" pointer-events="none"/>
          </g>
          <g class="cls-37">
            <path class="cls-9" d="M221.62,1437.76c36.98,124.63,73.96,249.25,110.94,249.25s73.76-182.98,110.64-242.79c36.88-59.82,73.76-116.12,110.63-116.12h110.63c36.98,0,73.95,178.14,110.94,178.14s73.76-55.67,110.63-55.67,73.76,40.83,110.63,40.83,73.76-163.3,110.63-163.3,73.96,115.27,110.94,115.27c43.53,0,87.05-160.58,130.58-102.68,37.32-1.89,41.39-2.1,78.71-3.99,40.87-60.55,81.74,217.21,122.61,252.68,36.98,32.09,73.96,48.13,110.94,48.13s73.76-113.45,110.63-113.45,73.76,21.78,110.63,21.78c40.73,0,81.47-265.66,122.2-210.09,38.28-1.12,53.39-1.57,91.68-2.69,39.44-51.92,78.88,321.64,118.32,321.64,36.88,0,73.76-181.44,110.64-195.95,36.88-14.52,73.76-21.78,110.63-21.78s73.95,136.08,110.94,136.08h110.63c36.88,0,73.76-49.35,110.63-49.35s73.76,34.84,110.63,34.84,73.96-13.98,110.94-29.77c36.88-15.75,73.76-64.74,110.63-64.74s73.76,36.46,110.63,36.46h110.63c36.98,0,73.96,100.49,110.94,129.52,36.88,28.95,73.76,44.66,110.63,44.66s73.76-6.45,110.63-19.36c36.88-12.9,73.76-115.6,110.63-115.6s73.96,63.39,110.94,93.66c36.88,30.19,73.76,87.73,110.63,87.73s73.76-253.8,110.64-253.8,73.76,5.64,110.63,16.92c36.98,11.31,73.96,268.9,110.94,268.9s73.76-45.33,110.63-89.79c36.88-44.46,73.76-176.97,110.63-176.97s73.76,43.35,110.63,86.7" pointer-events="none"/>
          </g>
        </g>
        <g class="cls-34">
          <path class="cls-3" d="M219.67,1323.56h4431.67" pointer-events="none"/>
        </g>
      </g>
    </g>
    <g id="Axis">
      <text class="cls-16" transform="translate(1406.53 309.33)"><tspan x="0" y="0">Which movie genres do viewers watch </tspan><tspan x="671.91" y="180">the most? (1994-2024)</tspan></text>
    </g>
  </g>
  <g id="Legend">
    <path d="M1452.23,982.22c-49.61,0-89.29-34.02-89.29-76.54s39.69-76.54,89.29-76.54,89.29,34.02,89.29,76.54-39.69,76.54-89.29,76.54ZM1452.23,846.16c-38.69,0-69.45,26.36-69.45,59.53s30.76,59.53,69.45,59.53,69.45-26.36,69.45-59.53-30.76-59.53-69.45-59.53Z"/>
    <path class="cls-24" d="M1452.23,841.91c-40.68,0-74.41,28.91-74.41,63.78s33.73,63.78,74.41,63.78,74.41-28.91,74.41-63.78-33.73-63.78-74.41-63.78ZM1423.46,887.83c-1.98-1.7-1.98-4.25,0-5.95s4.96-1.7,6.94,0l49.61,42.52c1.98,1.7,1.98,4.25.99,5.95-.99.85-1.98.85-3.97.85-.99,0-2.98,0-3.97-.85"/>
    <path d="M1477.04,935.45c-2.98,0-4.96-.85-6.94-2.55l-49.61-42.52c-3.97-3.4-3.97-8.5,0-11.91s9.92-3.4,13.89,0l49.61,42.52c3.97,3.4,3.97,8.5,0,11.91-1.98,1.7-3.97,2.55-6.94,2.55Z"/>
    <path d="M1895.43,982.22c-49.61,0-89.29-34.02-89.29-76.54s39.69-76.54,89.29-76.54,89.29,34.02,89.29,76.54-39.69,76.54-89.29,76.54ZM1895.43,846.16c-38.69,0-69.45,26.36-69.45,59.53s30.76,59.53,69.45,59.53,69.45-26.36,69.45-59.53-30.76-59.53-69.45-59.53Z"/>
    <path class="cls-54" d="M1895.43,841.91c-40.68,0-74.41,28.91-74.41,63.78s33.73,63.78,74.41,63.78,74.41-28.91,74.41-63.78-33.73-63.78-74.41-63.78ZM1866.66,887.83c-1.98-1.7-1.98-4.25,0-5.95s4.96-1.7,6.94,0l49.61,42.52c1.98,1.7,1.98,4.25.99,5.95-.99.85-1.98.85-3.97.85-.99,0-2.98,0-3.97-.85"/>
    <path d="M1920.24,935.45c-2.98,0-4.96-.85-6.94-2.55l-49.61-42.52c-3.97-3.4-3.97-8.5,0-11.91s9.92-3.4,13.89,0l49.61,42.52c3.97,3.4,3.97,8.5,0,11.91-1.98,1.7-3.97,2.55-6.94,2.55Z"/>
    <path d="M2336.13,982.22c-49.61,0-89.29-34.02-89.29-76.54s39.69-76.54,89.29-76.54,89.29,34.02,89.29,76.54-39.69,76.54-89.29,76.54ZM2336.13,846.16c-38.69,0-69.45,26.36-69.45,59.53s30.76,59.53,69.45,59.53,69.45-26.36,69.45-59.53-30.76-59.53-69.45-59.53Z"/>
    <path class="cls-56" d="M2336.13,841.91c-40.68,0-74.41,28.91-74.41,63.78s33.73,63.78,74.41,63.78,74.41-28.91,74.41-63.78-33.73-63.78-74.41-63.78ZM2307.36,887.83c-1.98-1.7-1.98-4.25,0-5.95s4.96-1.7,6.94,0l49.61,42.52c1.98,1.7,1.98,4.25.99,5.95-.99.85-1.98.85-3.97.85-.99,0-2.98,0-3.97-.85"/>
    <path d="M2360.94,935.45c-2.98,0-4.96-.85-6.94-2.55l-49.61-42.52c-3.97-3.4-3.97-8.5,0-11.91s9.92-3.4,13.89,0l49.61,42.52c3.97,3.4,3.97,8.5,0,11.91-1.98,1.7-3.97,2.55-6.94,2.55Z"/>
    <path d="M2762.43,982.22c-49.61,0-89.29-34.02-89.29-76.54s39.69-76.54,89.29-76.54,89.29,34.02,89.29,76.54-39.69,76.54-89.29,76.54ZM2762.43,846.16c-38.69,0-69.45,26.36-69.45,59.53s30.76,59.53,69.45,59.53,69.45-26.36,69.45-59.53-30.76-59.53-69.45-59.53Z"/>
    <path class="cls-55" d="M2761.43,841.91c-40.68,0-74.41,28.91-74.41,63.78s33.73,63.78,74.41,63.78,74.41-28.91,74.41-63.78-33.73-63.78-74.41-63.78ZM2732.66,887.83c-1.98-1.7-1.98-4.25,0-5.95s4.96-1.7,6.94,0l49.61,42.52c1.98,1.7,1.98,4.25.99,5.95-.99.85-1.98.85-3.97.85-.99,0-2.98,0-3.97-.85"/>
    <path d="M2787.24,935.45c-2.98,0-4.96-.85-6.94-2.55l-49.61-42.52c-3.97-3.4-3.97-8.5,0-11.91s9.92-3.4,13.89,0l49.61,42.52c3.97,3.4,3.97,8.5,0,11.91-1.98,1.7-3.97,2.55-6.94,2.55Z"/>
    <path d="M3177.63,969.22c-49.61,0-89.29-34.02-89.29-76.54s39.69-76.54,89.29-76.54,89.29,34.02,89.29,76.54-39.69,76.54-89.29,76.54ZM3177.63,833.16c-38.69,0-69.45,26.36-69.45,59.53s30.76,59.53,69.45,59.53,69.45-26.36,69.45-59.53-30.76-59.53-69.45-59.53Z"/>
    <path class="cls-50" d="M3177.63,828.91c-40.68,0-74.41,28.91-74.41,63.78s33.73,63.78,74.41,63.78,74.41-28.91,74.41-63.78-33.73-63.78-74.41-63.78ZM3148.86,874.83c-1.98-1.7-1.98-4.25,0-5.95,1.98-1.7,4.96-1.7,6.94,0l49.61,42.52c1.98,1.7,1.98,4.25.99,5.95-.99.85-1.98.85-3.97.85-.99,0-2.98,0-3.97-.85"/>
    <path d="M3202.44,922.45c-2.98,0-4.96-.85-6.94-2.55l-49.61-42.52c-3.97-3.4-3.97-8.5,0-11.91s9.92-3.4,13.89,0l49.61,42.52c3.97,3.4,3.97,8.5,0,11.91-1.98,1.7-3.97,2.55-6.94,2.55Z"/>
    <path d="M3610.03,969.22c-49.61,0-89.29-34.02-89.29-76.54s39.69-76.54,89.29-76.54,89.29,34.02,89.29,76.54-39.69,76.54-89.29,76.54ZM3610.03,833.16c-38.69,0-69.45,26.36-69.45,59.53s30.76,59.53,69.45,59.53,69.45-26.36,69.45-59.53-30.76-59.53-69.45-59.53Z"/>
    <path class="cls-11" d="M3609.03,828.91c-40.68,0-74.41,28.91-74.41,63.78s33.73,63.78,74.41,63.78,74.41-28.91,74.41-63.78-33.73-63.78-74.41-63.78ZM3580.26,874.83c-1.98-1.7-1.98-4.25,0-5.95s4.96-1.7,6.94,0l49.61,42.52c1.98,1.7,1.98,4.25.99,5.95-.99.85-1.98.85-3.97.85-.99,0-2.98,0-3.97-.85"/>
    <path d="M3634.84,922.45c-2.98,0-4.96-.85-6.94-2.55l-49.61-42.52c-3.97-3.4-3.97-8.5,0-11.91s9.92-3.4,13.89,0l49.61,42.52c3.97,3.4,3.97,8.5,0,11.91-1.98,1.7-3.97,2.55-6.94,2.55Z"/>
    <path d="M4055.07,969.23c-49.61,0-89.29-34.02-89.29-76.54s39.69-76.54,89.29-76.54,89.29,34.02,89.29,76.54-39.69,76.54-89.29,76.54ZM4055.07,833.17c-38.69,0-69.45,26.36-69.45,59.53s30.76,59.53,69.45,59.53,69.45-26.36,69.45-59.53-30.76-59.53-69.45-59.53Z"/>
    <path d="M4055.07,828.91c-40.68,0-74.41,28.91-74.41,63.78s33.73,63.78,74.41,63.78,74.41-28.91,74.41-63.78-33.73-63.78-74.41-63.78ZM4026.3,874.84c-1.98-1.7-1.98-4.25,0-5.95,1.98-1.7,4.96-1.7,6.94,0l49.61,42.52c1.98,1.7,1.98,4.25.99,5.95-.99.85-1.98.85-3.97.85-.99,0-2.98,0-3.97-.85"/>
    <path d="M4079.87,922.46c-2.98,0-4.96-.85-6.94-2.55l-49.61-42.52c-3.97-3.4-3.97-8.5,0-11.91,3.97-3.4,9.92-3.4,13.89,0l49.61,42.52c3.97,3.4,3.97,8.5,0,11.91-1.98,1.7-3.97,2.55-6.94,2.55Z"/>
    <path d="M4511.47,969.23c-49.61,0-89.29-34.02-89.29-76.54s39.69-76.54,89.29-76.54,89.29,34.02,89.29,76.54-39.69,76.54-89.29,76.54ZM4511.47,833.17c-38.69,0-69.45,26.36-69.45,59.53s30.76,59.53,69.45,59.53,69.45-26.36,69.45-59.53-30.76-59.53-69.45-59.53Z"/>
    <path id="Action_and_Adventure" class="cls-58" d="M4511.47,828.91c-40.68,0-74.41,28.91-74.41,63.78s33.73,63.78,74.41,63.78,74.41-28.91,74.41-63.78-33.73-63.78-74.41-63.78ZM4482.7,874.84c-1.98-1.7-1.98-4.25,0-5.95,1.98-1.7,4.96-1.7,6.94,0l49.61,42.52c1.98,1.7,1.98,4.25.99,5.95-.99.85-1.98.85-3.97.85-.99,0-2.98,0-3.97-.85"/>
    <path d="M4536.27,922.46c-2.98,0-4.96-.85-6.94-2.55l-49.61-42.52c-3.97-3.4-3.97-8.5,0-11.91,3.97-3.4,9.92-3.4,13.89,0l49.61,42.52c3.97,3.4,3.97,8.5,0,11.91-1.98,1.7-3.97,2.55-6.94,2.55Z"/>
  </g>
  <g id="TV">
    <path class="cls-21" d="M1230,1261v2304.3h1308.17l-.17,251.57s-259.46,99.13-231,99.13h1291c28.46,0-204-102.87-204-102.87l-.49-247.82h1358.49V1261M4651.37,1313.37v1990.08H1330.63v-1990.08h3320.74ZM3295.89,3771.98h-654.09l-3-154.31h654.09l3,154.31Z"/>
  </g>
  <g id="Axis-2" data-name="Axis">
    <text class="cls-19" transform="translate(4548.99 3491.38) rotate(-45)"><tspan x="0" y="0">2024</tspan></text>
    <text class="cls-19" transform="translate(4327.72 3491.38) rotate(-45)"><tspan x="0" y="0">2022</tspan></text>
    <text class="cls-19" transform="translate(4106.15 3492.78) rotate(-45)"><tspan x="0" y="0">2020</tspan></text>
    <text class="cls-19" transform="translate(3884.88 3491.38) rotate(-45)"><tspan x="0" y="0">2018</tspan></text>
    <text class="cls-19" transform="translate(3663.31 3491.38) rotate(-45)"><tspan x="0" y="0">2016</tspan></text>
    <text class="cls-19" transform="translate(3442.04 3491.38) rotate(-45)"><tspan x="0" y="0">2014</tspan></text>
    <text class="cls-19" transform="translate(3220.47 3491.38) rotate(-45)"><tspan x="0" y="0">2012</tspan></text>
    <text class="cls-19" transform="translate(2999.2 3491.38) rotate(-45)"><tspan x="0" y="0">2010</tspan></text>
    <text class="cls-19" transform="translate(2777.63 3491.38) rotate(-45)"><tspan x="0" y="0">2008</tspan></text>
    <text class="cls-19" transform="translate(2556.36 3492.78) rotate(-45)"><tspan x="0" y="0">2006</tspan></text>
    <text class="cls-19" transform="translate(2334.79 3491.38) rotate(-45)"><tspan x="0" y="0">2004</tspan></text>
    <text class="cls-19" transform="translate(2113.52 3491.38) rotate(-45)"><tspan x="0" y="0">2002</tspan></text>
    <text class="cls-19" transform="translate(1891.95 3491.38) rotate(-45)"><tspan x="0" y="0">2000</tspan></text>
    <text class="cls-19" transform="translate(1670.68 3491.38) rotate(-45)"><tspan x="0" y="0">1998</tspan></text>
    <text class="cls-19" transform="translate(1449.11 3492.78) rotate(-45)"><tspan x="0" y="0">1996</tspan></text>
    <text class="cls-18" transform="translate(1266.85 3496.71) rotate(-44.64) skewX(.73)"><tspan x="0" y="0">1994</tspan></text>
    <line class="cls-13" x1="1230" y1="1261" x2="4752" y2="1261"/>
  </g>
</svg>